<svg width="35" height="35" viewBox="0 0 35 35" fill="none" xmlns="http://www.w3.org/2000/svg">
<path d="M28.8389 4.4502C25.9746 1.5791 22.1602 0 18.1064 0C9.73926 0 2.93066 6.80859 2.93066 15.1758C2.93066 17.8486 3.62793 20.46 4.9541 22.7637L2.80078 30.625L10.8467 28.5127C13.0615 29.7227 15.5566 30.3584 18.0996 30.3584H18.1064C26.4668 30.3584 33.4258 23.5498 33.4258 15.1826C33.4258 11.1289 31.7031 7.32129 28.8389 4.4502ZM18.1064 27.8018C15.8369 27.8018 13.6152 27.1934 11.6807 26.0449L11.2227 25.7715L6.45117 27.0225L7.72266 22.3672L7.42187 21.8887C6.15723 19.8789 5.49414 17.5615 5.49414 15.1758C5.49414 8.22363 11.1543 2.56348 18.1133 2.56348C21.4834 2.56348 24.6484 3.87598 27.0273 6.26172C29.4062 8.64746 30.8691 11.8125 30.8623 15.1826C30.8623 22.1416 25.0586 27.8018 18.1064 27.8018ZM25.0244 18.3545C24.6484 18.1631 22.7822 17.2471 22.4336 17.124C22.085 16.9941 21.832 16.9326 21.5791 17.3154C21.3262 17.6982 20.6016 18.5459 20.376 18.8057C20.1572 19.0586 19.9316 19.0928 19.5557 18.9014C17.3271 17.7871 15.8643 16.9121 14.3945 14.3896C14.0049 13.7197 14.7842 13.7676 15.5088 12.3184C15.6318 12.0654 15.5703 11.8467 15.4746 11.6553C15.3789 11.4639 14.6201 9.59766 14.3057 8.83887C13.998 8.10059 13.6836 8.20313 13.4512 8.18945C13.2324 8.17578 12.9795 8.17578 12.7266 8.17578C12.4736 8.17578 12.0635 8.27148 11.7148 8.64746C11.3662 9.03027 10.3887 9.94629 10.3887 11.8125C10.3887 13.6787 11.749 15.4834 11.9336 15.7363C12.125 15.9893 14.6064 19.8174 18.4141 21.4648C20.8203 22.5039 21.7637 22.5928 22.9668 22.415C23.6982 22.3057 25.209 21.499 25.5234 20.6104C25.8379 19.7217 25.8379 18.9629 25.7422 18.8057C25.6533 18.6348 25.4004 18.5391 25.0244 18.3545Z" fill="white"/>
</svg>
